<?xml version="1.0" encoding="iso-8859-1"?>
<!-- Generator: Adobe Illustrator 19.0.0, SVG Export Plug-In . SVG Version: 6.00 Build 0)  -->
<svg version="1.1" xmlns="http://www.w3.org/2000/svg" xmlns:xlink="http://www.w3.org/1999/xlink" viewBox="0 0 512 512" xml:space="preserve">
<g>
	<g>
		<rect x="37.072" y="30.982" width="474.928" height="73.734"/>
	</g>
</g>
<g>
	<g>
		<path d="M70.434,382.023l48.853-247.305H88.716L40.783,377.332c-19.371,3.24-35.742,18.371-39.832,39.052
			c-5.24,26.542,11.721,52.333,37.812,57.493c3.1,0.61,6.21,0.91,9.301,0.91c9.581,0,18.961-2.91,27.102-8.51
			c10.641-7.33,17.901-18.411,20.421-31.202C99.926,413.124,89.076,391.693,70.434,382.023z"/>
	</g>
</g>
<g>
	<g>
		<path d="M238.884,384.763V134.718h-30.002v251.195c-18.371,6.94-31.502,24.951-31.502,46.033
			c0,27.062,21.631,49.073,48.233,49.073c26.592,0,48.233-22.011,48.233-49.073C273.846,409.564,259.045,390.643,238.884,384.763z"
			/>
	</g>
</g>
<g>
	<g>
		<path d="M352.741,384.753V134.718h-30.002v251.195c-18.371,6.94-31.502,24.951-31.502,46.033
			c0,27.062,21.641,49.073,48.233,49.073c26.602,0,48.233-22.011,48.233-49.073C387.703,409.564,372.912,390.643,352.741,384.753z"
			/>
	</g>
</g>
<g>
	<g>
		<path d="M466.608,384.753V134.718h-30.002v251.195c-18.371,6.94-31.502,24.951-31.502,46.033
			c0,27.062,21.631,49.073,48.233,49.073c26.592,0,48.233-22.011,48.233-49.073C501.57,409.564,486.769,390.643,466.608,384.753z"/>
	</g>
</g>
</svg>
