<?xml version="1.0" encoding="UTF-8"?>
<svg width="1200pt" height="1200pt" version="1.1" viewBox="0 0 1200 1200" xmlns="http://www.w3.org/2000/svg">
 <g fill-rule="evenodd">
  <path d="m902.16 233.09c0 73.902-59.91 133.81-133.82 133.81-73.902 0-133.81-59.91-133.81-133.81s59.91-133.81 133.81-133.81c73.906 0 133.82 59.91 133.82 133.81"/>
  <path d="m540.34 287.11c65.191 37.641 87.531 121 49.891 186.2-37.641 65.195-121 87.531-186.2 49.891-65.195-37.641-87.531-121-49.891-186.2 37.641-65.191 121-87.531 186.2-49.891"/>
  <path d="m66.762 847.43c65.191-37.641 148.55-15.301 186.2 49.891 37.641 65.195 15.301 148.56-49.891 186.2-65.195 37.641-148.56 15.305-186.2-49.891-37.641-65.191-15.305-148.55 49.891-186.2"/>
  <path d="m902.16 919.43c0 73.902-59.91 133.81-133.82 133.81-73.902 0-133.81-59.91-133.81-133.81 0-73.902 59.91-133.81 133.81-133.81 73.906 0 133.82 59.91 133.82 133.81"/>
  <path d="m996.35 865.16c-65.195-37.641-87.531-121-49.891-186.2 37.641-65.195 121-87.531 186.2-49.891s87.531 121 49.891 186.2c-37.641 65.195-121 87.531-186.2 49.891"/>
  <path d="m1132.7 523.19c-65.195 37.641-148.55 15.305-186.2-49.891-37.641-65.191-15.305-148.55 49.891-186.2 65.191-37.641 148.55-15.301 186.2 49.891 37.641 65.195 15.305 148.55-49.891 186.2"/>
  <path d="m902.16 574.1c0 73.902-59.91 133.81-133.82 133.81-73.902 0-133.81-59.91-133.81-133.81 0-73.902 59.91-133.81 133.81-133.81 73.906 0 133.82 59.91 133.82 133.81"/>
 </g>
</svg>
