<?xml version="1.0" encoding="UTF-8"?>
<svg width="1200pt" height="1200pt" version="1.1" viewBox="0 0 1200 1200" xmlns="http://www.w3.org/2000/svg">
 <path d="m599.65 131.25c-0.45312 0.011719-0.90625 0.035156-1.3555 0.070312-5.1758 0.30078-10.172 2.0234-14.43 4.9805l-440.55 305.2v0.003906c-7.5586 5.2656-12.059 13.895-12.047 23.105v576.05c0.007813 7.4531 2.9766 14.598 8.25 19.863 5.2734 5.2656 12.422 8.2227 19.875 8.2266h881.25c7.4453-0.011719 14.582-2.9727 19.848-8.2383 5.2656-5.2656 8.2266-12.406 8.2383-19.852v-576.05c-0.015625-9.2305-4.5586-17.867-12.156-23.109l-440.59-305.2h-0.003906c-4.7891-3.3398-10.496-5.1055-16.332-5.0547zm0.29297 201.71c74.445 0 135.5 60.754 135.5 135.09 0 74.34-61.055 135.24-135.5 135.24-74.445 0-135.5-60.898-135.5-135.24 0-74.34 61.055-135.09 135.5-135.09zm-93.422 319.74h186.84c70.277 0 127.77 57.348 127.77 127.62v45.262c0 70.277-57.492 127.59-127.77 127.59h-186.84c-70.277 0-127.62-57.309-127.62-127.59v-45.262c0-70.277 57.348-127.62 127.62-127.62z" fill-rule="evenodd"/>
</svg>
